<?xml version="1.0" encoding="UTF-8" standalone="no"?>
<!DOCTYPE svg PUBLIC "-//W3C//DTD SVG 1.1//EN"
 "http://www.w3.org/Graphics/SVG/1.1/DTD/svg11.dtd">
<!-- Generated by graphviz version 2.40.1 (20161225.0304)
 -->
<!-- Title: dependencies Pages: 1 -->
<svg width="796pt" height="211pt"
     viewBox="0.00 0.00 796.00 211.00" xmlns="http://www.w3.org/2000/svg">
<g id="graph0" class="graph" transform="scale(1 1) rotate(0) translate(4 207)">
<title>dependencies</title>
<polygon fill="#ffffff" stroke="transparent" points="-4,4 -4,-207 792,-207 792,4 -4,4"/>
<text text-anchor="start" x="373.0091" y="-42.4" font-family="sans-serif" font-weight="bold" font-size="14.00" fill="#000000">Legend</text>
<polygon fill="#ffffb3" stroke="transparent" points="160,-10 160,-30 180,-30 180,-10 160,-10"/>
<text text-anchor="start" x="183.629" y="-15.4" font-family="sans-serif" font-size="14.00" fill="#000000"> &#160;Declarations</text>
<polygon fill="#8dd3c7" stroke="transparent" points="273,-10 273,-30 293,-30 293,-10 273,-10"/>
<text text-anchor="start" x="296.7251" y="-15.4" font-family="sans-serif" font-size="14.00" fill="#000000"> &#160;Module</text>
<polygon fill="#80b1d3" stroke="transparent" points="359,-10 359,-30 379,-30 379,-10 359,-10"/>
<text text-anchor="start" x="382.7812" y="-15.4" font-family="sans-serif" font-size="14.00" fill="#000000"> &#160;Bootstrap</text>
<polygon fill="#fdb462" stroke="transparent" points="456,-10 456,-30 476,-30 476,-10 456,-10"/>
<text text-anchor="start" x="479.6732" y="-15.4" font-family="sans-serif" font-size="14.00" fill="#000000"> &#160;Providers</text>
<polygon fill="#fb8072" stroke="transparent" points="552,-10 552,-30 572,-30 572,-10 552,-10"/>
<text text-anchor="start" x="575.7258" y="-15.4" font-family="sans-serif" font-size="14.00" fill="#000000"> &#160;Exports</text>
<g id="clust1" class="cluster">
<title>cluster_CoreModule</title>
<polygon fill="none" stroke="#000000" stroke-dasharray="1,5" points="8,-70 8,-195 780,-195 780,-70 8,-70"/>
</g>
<g id="clust2" class="cluster">
<title>cluster_CoreModule_declarations</title>
<polygon fill="none" stroke="#000000" points="485,-78 485,-130 772,-130 772,-78 485,-78"/>
</g>
<g id="clust5" class="cluster">
<title>cluster_CoreModule_imports</title>
<polygon fill="none" stroke="#000000" points="216,-78 216,-130 477,-130 477,-78 216,-78"/>
</g>
<g id="clust8" class="cluster">
<title>cluster_CoreModule_providers</title>
<polygon fill="none" stroke="#000000" points="16,-78 16,-130 208,-130 208,-78 16,-78"/>
</g>
<!-- GameComponent -->
<g id="node1" class="node">
<title>GameComponent</title>
<polygon fill="#ffffb3" stroke="#000000" points="764.2591,-122 649.7409,-122 649.7409,-86 764.2591,-86 764.2591,-122"/>
<text text-anchor="middle" x="707" y="-99.8" font-family="Times,serif" font-size="14.00" fill="#000000">GameComponent</text>
</g>
<!-- CoreModule -->
<g id="node3" class="node">
<title>CoreModule</title>
<polygon fill="#8dd3c7" stroke="#000000" points="448.2619,-187 445.2619,-191 424.2619,-191 421.2619,-187 361.7381,-187 361.7381,-151 448.2619,-151 448.2619,-187"/>
<text text-anchor="middle" x="405" y="-164.8" font-family="Times,serif" font-size="14.00" fill="#000000">CoreModule</text>
</g>
<!-- GameComponent&#45;&gt;CoreModule -->
<g id="edge1" class="edge">
<title>GameComponent&#45;&gt;CoreModule</title>
<path fill="none" stroke="#000000" d="M707,-122.2843C707,-143.3211 707,-175 707,-175 707,-175 458.2692,-175 458.2692,-175"/>
<polygon fill="#000000" stroke="#000000" points="458.2693,-171.5001 448.2692,-175 458.2692,-178.5001 458.2693,-171.5001"/>
</g>
<!-- HighscoreComponent -->
<g id="node2" class="node">
<title>HighscoreComponent</title>
<polygon fill="#ffffb3" stroke="#000000" points="631.3641,-122 492.6359,-122 492.6359,-86 631.3641,-86 631.3641,-122"/>
<text text-anchor="middle" x="562" y="-99.8" font-family="Times,serif" font-size="14.00" fill="#000000">HighscoreComponent</text>
</g>
<!-- HighscoreComponent&#45;&gt;CoreModule -->
<g id="edge2" class="edge">
<title>HighscoreComponent&#45;&gt;CoreModule</title>
<path fill="none" stroke="#000000" d="M562,-122.0225C562,-139.3734 562,-163 562,-163 562,-163 458.3165,-163 458.3165,-163"/>
<polygon fill="#000000" stroke="#000000" points="458.3166,-159.5001 448.3165,-163 458.3165,-166.5001 458.3166,-159.5001"/>
</g>
<!-- AppRoutingModule -->
<g id="node4" class="node">
<title>AppRoutingModule</title>
<polygon fill="#8dd3c7" stroke="#000000" points="469.2744,-122 466.2744,-126 445.2744,-126 442.2744,-122 340.7256,-122 340.7256,-86 469.2744,-86 469.2744,-122"/>
<text text-anchor="middle" x="405" y="-99.8" font-family="Times,serif" font-size="14.00" fill="#000000">AppRoutingModule</text>
</g>
<!-- AppRoutingModule&#45;&gt;CoreModule -->
<g id="edge3" class="edge">
<title>AppRoutingModule&#45;&gt;CoreModule</title>
<path fill="none" stroke="#000000" d="M405,-122.1061C405,-122.1061 405,-140.991 405,-140.991"/>
<polygon fill="#000000" stroke="#000000" points="401.5001,-140.9909 405,-150.991 408.5001,-140.991 401.5001,-140.9909"/>
</g>
<!-- SharedModule -->
<g id="node5" class="node">
<title>SharedModule</title>
<polygon fill="#8dd3c7" stroke="#000000" points="322.4231,-122 319.4231,-126 298.4231,-126 295.4231,-122 223.5769,-122 223.5769,-86 322.4231,-86 322.4231,-122"/>
<text text-anchor="middle" x="273" y="-99.8" font-family="Times,serif" font-size="14.00" fill="#000000">SharedModule</text>
</g>
<!-- SharedModule&#45;&gt;CoreModule -->
<g id="edge4" class="edge">
<title>SharedModule&#45;&gt;CoreModule</title>
<path fill="none" stroke="#000000" d="M273,-122.0225C273,-139.3734 273,-163 273,-163 273,-163 351.4124,-163 351.4124,-163"/>
<polygon fill="#000000" stroke="#000000" points="351.4125,-166.5001 361.4124,-163 351.4124,-159.5001 351.4125,-166.5001"/>
</g>
<!-- GameServerService -->
<g id="node6" class="node">
<title>GameServerService</title>
<ellipse fill="#fdb462" stroke="#000000" cx="112" cy="-104" rx="88.4979" ry="18"/>
<text text-anchor="middle" x="112" y="-99.8" font-family="Times,serif" font-size="14.00" fill="#000000">GameServerService</text>
</g>
<!-- GameServerService&#45;&gt;CoreModule -->
<g id="edge5" class="edge">
<title>GameServerService&#45;&gt;CoreModule</title>
<path fill="none" stroke="#000000" d="M112,-122.2843C112,-143.3211 112,-175 112,-175 112,-175 351.4513,-175 351.4513,-175"/>
<polygon fill="#000000" stroke="#000000" points="351.4514,-178.5001 361.4513,-175 351.4513,-171.5001 351.4514,-178.5001"/>
</g>
</g>
</svg>
