<?xml version="1.0" encoding="UTF-8" standalone="no"?>
<!DOCTYPE svg PUBLIC "-//W3C//DTD SVG 1.1//EN"
 "http://www.w3.org/Graphics/SVG/1.1/DTD/svg11.dtd">
<!-- Generated by graphviz version 2.40.1 (20161225.0304)
 -->
<!-- Title: dependencies Pages: 1 -->
<svg width="910pt" height="284pt"
     viewBox="0.00 0.00 910.00 284.00" xmlns="http://www.w3.org/2000/svg">
<g id="graph0" class="graph" transform="scale(1 1) rotate(0) translate(4 280)">
<title>dependencies</title>
<polygon fill="#ffffff" stroke="transparent" points="-4,4 -4,-280 906,-280 906,4 -4,4"/>
<text text-anchor="start" x="430.0091" y="-42.4" font-family="sans-serif" font-weight="bold" font-size="14.00" fill="#000000">Legend</text>
<polygon fill="#ffffb3" stroke="transparent" points="217,-10 217,-30 237,-30 237,-10 217,-10"/>
<text text-anchor="start" x="240.629" y="-15.4" font-family="sans-serif" font-size="14.00" fill="#000000"> &#160;Declarations</text>
<polygon fill="#8dd3c7" stroke="transparent" points="330,-10 330,-30 350,-30 350,-10 330,-10"/>
<text text-anchor="start" x="353.7251" y="-15.4" font-family="sans-serif" font-size="14.00" fill="#000000"> &#160;Module</text>
<polygon fill="#80b1d3" stroke="transparent" points="416,-10 416,-30 436,-30 436,-10 416,-10"/>
<text text-anchor="start" x="439.7812" y="-15.4" font-family="sans-serif" font-size="14.00" fill="#000000"> &#160;Bootstrap</text>
<polygon fill="#fdb462" stroke="transparent" points="513,-10 513,-30 533,-30 533,-10 513,-10"/>
<text text-anchor="start" x="536.6732" y="-15.4" font-family="sans-serif" font-size="14.00" fill="#000000"> &#160;Providers</text>
<polygon fill="#fb8072" stroke="transparent" points="609,-10 609,-30 629,-30 629,-10 609,-10"/>
<text text-anchor="start" x="632.7258" y="-15.4" font-family="sans-serif" font-size="14.00" fill="#000000"> &#160;Exports</text>
<g id="clust1" class="cluster">
<title>cluster_AuthModule</title>
<polygon fill="none" stroke="#000000" stroke-dasharray="1,5" points="8,-70 8,-268 894,-268 894,-70 8,-70"/>
</g>
<g id="clust2" class="cluster">
<title>cluster_AuthModule_declarations</title>
<polygon fill="none" stroke="#000000" points="616,-78 616,-130 886,-130 886,-78 616,-78"/>
</g>
<g id="clust5" class="cluster">
<title>cluster_AuthModule_imports</title>
<polygon fill="none" stroke="#000000" points="343,-78 343,-130 608,-130 608,-78 343,-78"/>
</g>
<g id="clust6" class="cluster">
<title>cluster_AuthModule_exports</title>
<polygon fill="none" stroke="#000000" points="396,-208 396,-260 538,-260 538,-208 396,-208"/>
</g>
<g id="clust8" class="cluster">
<title>cluster_AuthModule_providers</title>
<polygon fill="none" stroke="#000000" points="16,-78 16,-130 335,-130 335,-78 16,-78"/>
</g>
<!-- HeaderComponent -->
<g id="node1" class="node">
<title>HeaderComponent</title>
<polygon fill="#ffffb3" stroke="#000000" points="877.7437,-122 756.2563,-122 756.2563,-86 877.7437,-86 877.7437,-122"/>
<text text-anchor="middle" x="817" y="-99.8" font-family="Times,serif" font-size="14.00" fill="#000000">HeaderComponent</text>
</g>
<!-- AuthModule -->
<g id="node3" class="node">
<title>AuthModule</title>
<polygon fill="#8dd3c7" stroke="#000000" points="510.5482,-187 507.5482,-191 486.5482,-191 483.5482,-187 423.4518,-187 423.4518,-151 510.5482,-151 510.5482,-187"/>
<text text-anchor="middle" x="467" y="-164.8" font-family="Times,serif" font-size="14.00" fill="#000000">AuthModule</text>
</g>
<!-- HeaderComponent&#45;&gt;AuthModule -->
<g id="edge1" class="edge">
<title>HeaderComponent&#45;&gt;AuthModule</title>
<path fill="none" stroke="#000000" d="M817,-122.2843C817,-143.3211 817,-175 817,-175 817,-175 520.6201,-175 520.6201,-175"/>
<polygon fill="#000000" stroke="#000000" points="520.6201,-171.5001 510.6201,-175 520.62,-178.5001 520.6201,-171.5001"/>
</g>
<!-- LoginComponent -->
<g id="node2" class="node">
<title>LoginComponent</title>
<polygon fill="#ffffb3" stroke="#000000" points="738.2758,-122 623.7242,-122 623.7242,-86 738.2758,-86 738.2758,-122"/>
<text text-anchor="middle" x="681" y="-99.8" font-family="Times,serif" font-size="14.00" fill="#000000">LoginComponent</text>
</g>
<!-- LoginComponent&#45;&gt;AuthModule -->
<g id="edge2" class="edge">
<title>LoginComponent&#45;&gt;AuthModule</title>
<path fill="none" stroke="#000000" d="M681,-122.0225C681,-139.3734 681,-163 681,-163 681,-163 520.564,-163 520.564,-163"/>
<polygon fill="#000000" stroke="#000000" points="520.5641,-159.5001 510.564,-163 520.564,-166.5001 520.5641,-159.5001"/>
</g>
<!-- HeaderComponent  -->
<g id="node6" class="node">
<title>HeaderComponent </title>
<polygon fill="#fb8072" stroke="#000000" points="529.7436,-252 404.2564,-252 404.2564,-216 529.7436,-216 529.7436,-252"/>
<text text-anchor="middle" x="467" y="-229.8" font-family="Times,serif" font-size="14.00" fill="#000000">HeaderComponent </text>
</g>
<!-- AuthModule&#45;&gt;HeaderComponent  -->
<g id="edge5" class="edge">
<title>AuthModule&#45;&gt;HeaderComponent </title>
<path fill="none" stroke="#000000" stroke-dasharray="5,2" d="M467,-187.1061C467,-187.1061 467,-205.991 467,-205.991"/>
<polygon fill="#000000" stroke="#000000" points="463.5001,-205.9909 467,-215.991 470.5001,-205.991 463.5001,-205.9909"/>
</g>
<!-- AuthRoutingModule -->
<g id="node4" class="node">
<title>AuthRoutingModule</title>
<polygon fill="#8dd3c7" stroke="#000000" points="600.1652,-122 597.1652,-126 576.1652,-126 573.1652,-122 467.8348,-122 467.8348,-86 600.1652,-86 600.1652,-122"/>
<text text-anchor="middle" x="534" y="-99.8" font-family="Times,serif" font-size="14.00" fill="#000000">AuthRoutingModule</text>
</g>
<!-- AuthRoutingModule&#45;&gt;AuthModule -->
<g id="edge3" class="edge">
<title>AuthRoutingModule&#45;&gt;AuthModule</title>
<path fill="none" stroke="#000000" d="M489.2206,-122.1061C489.2206,-122.1061 489.2206,-140.991 489.2206,-140.991"/>
<polygon fill="#000000" stroke="#000000" points="485.7206,-140.9909 489.2206,-150.991 492.7206,-140.991 485.7206,-140.9909"/>
</g>
<!-- SharedModule -->
<g id="node5" class="node">
<title>SharedModule</title>
<polygon fill="#8dd3c7" stroke="#000000" points="449.4231,-122 446.4231,-126 425.4231,-126 422.4231,-122 350.5769,-122 350.5769,-86 449.4231,-86 449.4231,-122"/>
<text text-anchor="middle" x="400" y="-99.8" font-family="Times,serif" font-size="14.00" fill="#000000">SharedModule</text>
</g>
<!-- SharedModule&#45;&gt;AuthModule -->
<g id="edge4" class="edge">
<title>SharedModule&#45;&gt;AuthModule</title>
<path fill="none" stroke="#000000" d="M436.2188,-122.1061C436.2188,-122.1061 436.2188,-140.991 436.2188,-140.991"/>
<polygon fill="#000000" stroke="#000000" points="432.7189,-140.9909 436.2188,-150.991 439.7189,-140.991 432.7189,-140.9909"/>
</g>
<!-- AuthGuardService -->
<g id="node7" class="node">
<title>AuthGuardService</title>
<ellipse fill="#fdb462" stroke="#000000" cx="244" cy="-104" rx="83.3674" ry="18"/>
<text text-anchor="middle" x="244" y="-99.8" font-family="Times,serif" font-size="14.00" fill="#000000">AuthGuardService</text>
</g>
<!-- AuthGuardService&#45;&gt;AuthModule -->
<g id="edge6" class="edge">
<title>AuthGuardService&#45;&gt;AuthModule</title>
<path fill="none" stroke="#000000" d="M244,-122.0225C244,-139.3734 244,-163 244,-163 244,-163 413.2084,-163 413.2084,-163"/>
<polygon fill="#000000" stroke="#000000" points="413.2085,-166.5001 423.2084,-163 413.2084,-159.5001 413.2085,-166.5001"/>
</g>
<!-- AuthService -->
<g id="node8" class="node">
<title>AuthService</title>
<ellipse fill="#fdb462" stroke="#000000" cx="83" cy="-104" rx="59.1083" ry="18"/>
<text text-anchor="middle" x="83" y="-99.8" font-family="Times,serif" font-size="14.00" fill="#000000">AuthService</text>
</g>
<!-- AuthService&#45;&gt;AuthModule -->
<g id="edge7" class="edge">
<title>AuthService&#45;&gt;AuthModule</title>
<path fill="none" stroke="#000000" d="M83,-122.2843C83,-143.3211 83,-175 83,-175 83,-175 413.3242,-175 413.3242,-175"/>
<polygon fill="#000000" stroke="#000000" points="413.3242,-178.5001 423.3242,-175 413.3241,-171.5001 413.3242,-178.5001"/>
</g>
</g>
</svg>
