<?xml version="1.0" encoding="UTF-8" standalone="no"?>
<!DOCTYPE svg PUBLIC "-//W3C//DTD SVG 1.1//EN"
 "http://www.w3.org/Graphics/SVG/1.1/DTD/svg11.dtd">
<!-- Generated by graphviz version 2.40.1 (20161225.0304)
 -->
<!-- Title: dependencies Pages: 1 -->
<svg width="1489pt" height="428pt"
     viewBox="0.00 0.00 1489.00 428.00" xmlns="http://www.w3.org/2000/svg">
<g id="graph0" class="graph" transform="scale(1 1) rotate(0) translate(4 424)">
<title>dependencies</title>
<polygon fill="#ffffff" stroke="transparent" points="-4,4 -4,-424 1485,-424 1485,4 -4,4"/>
<text text-anchor="start" x="719.5091" y="-42.4" font-family="sans-serif" font-weight="bold" font-size="14.00" fill="#000000">Legend</text>
<polygon fill="#ffffb3" stroke="transparent" points="506.5,-10 506.5,-30 526.5,-30 526.5,-10 506.5,-10"/>
<text text-anchor="start" x="530.129" y="-15.4" font-family="sans-serif" font-size="14.00" fill="#000000"> &#160;Declarations</text>
<polygon fill="#8dd3c7" stroke="transparent" points="619.5,-10 619.5,-30 639.5,-30 639.5,-10 619.5,-10"/>
<text text-anchor="start" x="643.2251" y="-15.4" font-family="sans-serif" font-size="14.00" fill="#000000"> &#160;Module</text>
<polygon fill="#80b1d3" stroke="transparent" points="705.5,-10 705.5,-30 725.5,-30 725.5,-10 705.5,-10"/>
<text text-anchor="start" x="729.2812" y="-15.4" font-family="sans-serif" font-size="14.00" fill="#000000"> &#160;Bootstrap</text>
<polygon fill="#fdb462" stroke="transparent" points="802.5,-10 802.5,-30 822.5,-30 822.5,-10 802.5,-10"/>
<text text-anchor="start" x="826.1732" y="-15.4" font-family="sans-serif" font-size="14.00" fill="#000000"> &#160;Providers</text>
<polygon fill="#fb8072" stroke="transparent" points="898.5,-10 898.5,-30 918.5,-30 918.5,-10 898.5,-10"/>
<text text-anchor="start" x="922.2258" y="-15.4" font-family="sans-serif" font-size="14.00" fill="#000000"> &#160;Exports</text>
<g id="clust1" class="cluster">
<title>cluster_AppModule</title>
<polygon fill="none" stroke="#000000" stroke-dasharray="1,5" points="566,-146 566,-412 962,-412 962,-146 566,-146"/>
</g>
<g id="clust2" class="cluster">
<title>cluster_AppModule_declarations</title>
<polygon fill="none" stroke="#000000" points="832,-222 832,-274 954,-274 954,-222 832,-222"/>
</g>
<g id="clust4" class="cluster">
<title>cluster_AppModule_imports</title>
<polygon fill="none" stroke="#000000" points="574,-154 574,-274 824,-274 824,-154 574,-154"/>
</g>
<g id="clust6" class="cluster">
<title>cluster_AppModule_bootstrap</title>
<polygon fill="none" stroke="#000000" points="680,-352 680,-404 804,-404 804,-352 680,-352"/>
</g>
<g id="clust14" class="cluster">
<title>cluster_AuthModule</title>
<polygon fill="none" stroke="#000000" stroke-dasharray="1,5" points="8,-70 8,-138 1044,-138 1044,-70 8,-70"/>
</g>
<g id="clust15" class="cluster">
<title>cluster_AuthModule_declarations</title>
<polygon fill="none" stroke="#000000" points="493,-78 493,-130 763,-130 763,-78 493,-78"/>
</g>
<g id="clust18" class="cluster">
<title>cluster_AuthModule_imports</title>
<polygon fill="none" stroke="#000000" points="771,-78 771,-130 1036,-130 1036,-78 771,-78"/>
</g>
<g id="clust19" class="cluster">
<title>cluster_AuthModule_exports</title>
<polygon fill="none" stroke="#000000" points="16,-78 16,-130 158,-130 158,-78 16,-78"/>
</g>
<g id="clust21" class="cluster">
<title>cluster_AuthModule_providers</title>
<polygon fill="none" stroke="#000000" points="166,-78 166,-130 485,-130 485,-78 166,-78"/>
</g>
<g id="clust28" class="cluster">
<title>cluster_CoreModule</title>
<polygon fill="none" stroke="#000000" stroke-dasharray="1,5" points="970,-146 970,-214 1473,-214 1473,-146 970,-146"/>
</g>
<g id="clust29" class="cluster">
<title>cluster_CoreModule_declarations</title>
<polygon fill="none" stroke="#000000" points="1178,-154 1178,-206 1465,-206 1465,-154 1178,-154"/>
</g>
<g id="clust35" class="cluster">
<title>cluster_CoreModule_providers</title>
<polygon fill="none" stroke="#000000" points="978,-154 978,-206 1170,-206 1170,-154 978,-154"/>
</g>
<!-- AppComponent -->
<g id="node1" class="node">
<title>AppComponent</title>
<polygon fill="#ffffb3" stroke="#000000" points="945.9399,-266 840.0601,-266 840.0601,-230 945.9399,-230 945.9399,-266"/>
<text text-anchor="middle" x="893" y="-243.8" font-family="Times,serif" font-size="14.00" fill="#000000">AppComponent</text>
</g>
<!-- AppModule -->
<g id="node2" class="node">
<title>AppModule</title>
<polygon fill="#8dd3c7" stroke="#000000" points="783.6571,-331 780.6571,-335 759.6571,-335 756.6571,-331 700.3429,-331 700.3429,-295 783.6571,-295 783.6571,-331"/>
<text text-anchor="middle" x="742" y="-308.8" font-family="Times,serif" font-size="14.00" fill="#000000">AppModule</text>
</g>
<!-- AppComponent&#45;&gt;AppModule -->
<g id="edge1" class="edge">
<title>AppComponent&#45;&gt;AppModule</title>
<path fill="none" stroke="#000000" d="M893,-266.1061C893,-285.3391 893,-313 893,-313 893,-313 793.6611,-313 793.6611,-313"/>
<polygon fill="#000000" stroke="#000000" points="793.6612,-309.5001 783.6611,-313 793.6611,-316.5001 793.6612,-309.5001"/>
</g>
<!-- AppComponent  -->
<g id="node6" class="node">
<title>AppComponent </title>
<polygon fill="#80b1d3" stroke="#000000" points="796.439,-396 687.561,-396 687.561,-360 796.439,-360 796.439,-396"/>
<text text-anchor="middle" x="742" y="-373.8" font-family="Times,serif" font-size="14.00" fill="#000000">AppComponent </text>
</g>
<!-- AppModule&#45;&gt;AppComponent  -->
<g id="edge5" class="edge">
<title>AppModule&#45;&gt;AppComponent </title>
<path fill="none" stroke="#000000" stroke-dasharray="1,5" d="M742,-331.1061C742,-331.1061 742,-349.991 742,-349.991"/>
<polygon fill="#000000" stroke="#000000" points="738.5001,-349.9909 742,-359.991 745.5001,-349.991 738.5001,-349.9909"/>
</g>
<!-- AppRoutingModule -->
<g id="node3" class="node">
<title>AppRoutingModule</title>
<polygon fill="#8dd3c7" stroke="#000000" points="816.2744,-198 813.2744,-202 792.2744,-202 789.2744,-198 687.7256,-198 687.7256,-162 816.2744,-162 816.2744,-198"/>
<text text-anchor="middle" x="752" y="-175.8" font-family="Times,serif" font-size="14.00" fill="#000000">AppRoutingModule</text>
</g>
<!-- AppRoutingModule&#45;&gt;AppModule -->
<g id="edge2" class="edge">
<title>AppRoutingModule&#45;&gt;AppModule</title>
<path fill="none" stroke="#000000" d="M714.8955,-198.2142C714.8955,-198.2142 714.8955,-284.579 714.8955,-284.579"/>
<polygon fill="#000000" stroke="#000000" points="711.3956,-284.5789 714.8955,-294.579 718.3956,-284.579 711.3956,-284.5789"/>
</g>
<!-- CoreModule -->
<g id="node5" class="node">
<title>CoreModule</title>
<polygon fill="#8dd3c7" stroke="#000000" points="816.2619,-266 813.2619,-270 792.2619,-270 789.2619,-266 729.7381,-266 729.7381,-230 816.2619,-230 816.2619,-266"/>
<text text-anchor="middle" x="773" y="-243.8" font-family="Times,serif" font-size="14.00" fill="#000000">CoreModule</text>
</g>
<!-- AppRoutingModule&#45;&gt;CoreModule -->
<g id="edge15" class="edge">
<title>AppRoutingModule&#45;&gt;CoreModule</title>
<path fill="none" stroke="#000000" d="M746.9715,-198.2228C746.9715,-198.2228 746.9715,-219.7269 746.9715,-219.7269"/>
<polygon fill="#000000" stroke="#000000" points="743.4716,-219.7269 746.9715,-229.7269 750.4716,-219.727 743.4716,-219.7269"/>
</g>
<!-- AuthModule -->
<g id="node4" class="node">
<title>AuthModule</title>
<polygon fill="#8dd3c7" stroke="#000000" points="669.5482,-198 666.5482,-202 645.5482,-202 642.5482,-198 582.4518,-198 582.4518,-162 669.5482,-162 669.5482,-198"/>
<text text-anchor="middle" x="626" y="-175.8" font-family="Times,serif" font-size="14.00" fill="#000000">AuthModule</text>
</g>
<!-- AuthModule&#45;&gt;AppModule -->
<g id="edge3" class="edge">
<title>AuthModule&#45;&gt;AppModule</title>
<path fill="none" stroke="#000000" d="M626,-198.2142C626,-234.6396 626,-313 626,-313 626,-313 690.1213,-313 690.1213,-313"/>
<polygon fill="#000000" stroke="#000000" points="690.1214,-316.5001 700.1213,-313 690.1213,-309.5001 690.1214,-316.5001"/>
</g>
<!-- HeaderComponent  -->
<g id="node11" class="node">
<title>HeaderComponent </title>
<polygon fill="#fb8072" stroke="#000000" points="149.7436,-122 24.2564,-122 24.2564,-86 149.7436,-86 149.7436,-122"/>
<text text-anchor="middle" x="87" y="-99.8" font-family="Times,serif" font-size="14.00" fill="#000000">HeaderComponent </text>
</g>
<!-- AuthModule&#45;&gt;HeaderComponent  -->
<g id="edge10" class="edge">
<title>AuthModule&#45;&gt;HeaderComponent </title>
<path fill="none" stroke="#000000" stroke-dasharray="5,2" d="M582.3479,-189C454.0306,-189 87,-189 87,-189 87,-189 87,-132.0263 87,-132.0263"/>
<polygon fill="#000000" stroke="#000000" points="90.5001,-132.0263 87,-122.0263 83.5001,-132.0263 90.5001,-132.0263"/>
</g>
<!-- CoreModule&#45;&gt;AppModule -->
<g id="edge4" class="edge">
<title>CoreModule&#45;&gt;AppModule</title>
<path fill="none" stroke="#000000" d="M756.7237,-266.1061C756.7237,-266.1061 756.7237,-284.991 756.7237,-284.991"/>
<polygon fill="#000000" stroke="#000000" points="753.2238,-284.9909 756.7237,-294.991 760.2238,-284.991 753.2238,-284.9909"/>
</g>
<!-- HeaderComponent -->
<g id="node7" class="node">
<title>HeaderComponent</title>
<polygon fill="#ffffb3" stroke="#000000" points="754.7437,-122 633.2563,-122 633.2563,-86 754.7437,-86 754.7437,-122"/>
<text text-anchor="middle" x="694" y="-99.8" font-family="Times,serif" font-size="14.00" fill="#000000">HeaderComponent</text>
</g>
<!-- HeaderComponent&#45;&gt;AuthModule -->
<g id="edge6" class="edge">
<title>HeaderComponent&#45;&gt;AuthModule</title>
<path fill="none" stroke="#000000" d="M642.2896,-122.0109C642.2896,-122.0109 642.2896,-151.855 642.2896,-151.855"/>
<polygon fill="#000000" stroke="#000000" points="638.7897,-151.8549 642.2896,-161.855 645.7897,-151.855 638.7897,-151.8549"/>
</g>
<!-- LoginComponent -->
<g id="node8" class="node">
<title>LoginComponent</title>
<polygon fill="#ffffb3" stroke="#000000" points="615.2758,-122 500.7242,-122 500.7242,-86 615.2758,-86 615.2758,-122"/>
<text text-anchor="middle" x="558" y="-99.8" font-family="Times,serif" font-size="14.00" fill="#000000">LoginComponent</text>
</g>
<!-- LoginComponent&#45;&gt;AuthModule -->
<g id="edge7" class="edge">
<title>LoginComponent&#45;&gt;AuthModule</title>
<path fill="none" stroke="#000000" d="M598.8072,-122.0109C598.8072,-122.0109 598.8072,-151.855 598.8072,-151.855"/>
<polygon fill="#000000" stroke="#000000" points="595.3072,-151.8549 598.8072,-161.855 602.3072,-151.855 595.3072,-151.8549"/>
</g>
<!-- AuthRoutingModule -->
<g id="node9" class="node">
<title>AuthRoutingModule</title>
<polygon fill="#8dd3c7" stroke="#000000" points="911.1652,-122 908.1652,-126 887.1652,-126 884.1652,-122 778.8348,-122 778.8348,-86 911.1652,-86 911.1652,-122"/>
<text text-anchor="middle" x="845" y="-99.8" font-family="Times,serif" font-size="14.00" fill="#000000">AuthRoutingModule</text>
</g>
<!-- AuthRoutingModule&#45;&gt;AuthModule -->
<g id="edge8" class="edge">
<title>AuthRoutingModule&#45;&gt;AuthModule</title>
<path fill="none" stroke="#000000" d="M797.5274,-122.2434C797.5274,-129.4297 797.5274,-136 797.5274,-136 797.5274,-136 651.4509,-136 651.4509,-136 651.4509,-136 651.4509,-151.8495 651.4509,-151.8495"/>
<polygon fill="#000000" stroke="#000000" points="647.951,-151.8494 651.4509,-161.8495 654.951,-151.8495 647.951,-151.8494"/>
</g>
<!-- SharedModule -->
<g id="node10" class="node">
<title>SharedModule</title>
<polygon fill="#8dd3c7" stroke="#000000" points="1028.4231,-122 1025.4231,-126 1004.4231,-126 1001.4231,-122 929.5769,-122 929.5769,-86 1028.4231,-86 1028.4231,-122"/>
<text text-anchor="middle" x="979" y="-99.8" font-family="Times,serif" font-size="14.00" fill="#000000">SharedModule</text>
</g>
<!-- SharedModule&#45;&gt;AuthModule -->
<g id="edge9" class="edge">
<title>SharedModule&#45;&gt;AuthModule</title>
<path fill="none" stroke="#000000" d="M935.0991,-122.0439C935.0991,-134.5633 935.0991,-149 935.0991,-149 935.0991,-149 660.6122,-149 660.6122,-149 660.6122,-149 660.6122,-151.9672 660.6122,-151.9672"/>
<polygon fill="#000000" stroke="#000000" points="657.1123,-151.9671 660.6122,-161.9672 664.1123,-151.9672 657.1123,-151.9671"/>
</g>
<!-- SharedModule&#45;&gt;CoreModule -->
<g id="edge16" class="edge">
<title>SharedModule&#45;&gt;CoreModule</title>
<path fill="none" stroke="#000000" d="M940.4093,-122.2356C940.4093,-151.5744 940.4093,-206 940.4093,-206 940.4093,-206 764.3238,-206 764.3238,-206 764.3238,-206 764.3238,-219.9445 764.3238,-219.9445"/>
<polygon fill="#000000" stroke="#000000" points="760.8239,-219.9444 764.3238,-229.9445 767.8239,-219.9445 760.8239,-219.9444"/>
</g>
<!-- AuthGuardService -->
<g id="node12" class="node">
<title>AuthGuardService</title>
<ellipse fill="#fdb462" stroke="#000000" cx="394" cy="-104" rx="83.3674" ry="18"/>
<text text-anchor="middle" x="394" y="-99.8" font-family="Times,serif" font-size="14.00" fill="#000000">AuthGuardService</text>
</g>
<!-- AuthGuardService&#45;&gt;AuthModule -->
<g id="edge11" class="edge">
<title>AuthGuardService&#45;&gt;AuthModule</title>
<path fill="none" stroke="#000000" d="M394,-122.308C394,-142.1455 394,-171 394,-171 394,-171 572.3626,-171 572.3626,-171"/>
<polygon fill="#000000" stroke="#000000" points="572.3626,-174.5001 582.3626,-171 572.3625,-167.5001 572.3626,-174.5001"/>
</g>
<!-- AuthService -->
<g id="node13" class="node">
<title>AuthService</title>
<ellipse fill="#fdb462" stroke="#000000" cx="233" cy="-104" rx="59.1083" ry="18"/>
<text text-anchor="middle" x="233" y="-99.8" font-family="Times,serif" font-size="14.00" fill="#000000">AuthService</text>
</g>
<!-- AuthService&#45;&gt;AuthModule -->
<g id="edge12" class="edge">
<title>AuthService&#45;&gt;AuthModule</title>
<path fill="none" stroke="#000000" d="M233,-122.0109C233,-144.4852 233,-180 233,-180 233,-180 572.4406,-180 572.4406,-180"/>
<polygon fill="#000000" stroke="#000000" points="572.4406,-183.5001 582.4406,-180 572.4405,-176.5001 572.4406,-183.5001"/>
</g>
<!-- GameComponent -->
<g id="node14" class="node">
<title>GameComponent</title>
<polygon fill="#ffffb3" stroke="#000000" points="1457.2591,-198 1342.7409,-198 1342.7409,-162 1457.2591,-162 1457.2591,-198"/>
<text text-anchor="middle" x="1400" y="-175.8" font-family="Times,serif" font-size="14.00" fill="#000000">GameComponent</text>
</g>
<!-- GameComponent&#45;&gt;CoreModule -->
<g id="edge13" class="edge">
<title>GameComponent&#45;&gt;CoreModule</title>
<path fill="none" stroke="#000000" d="M1400,-198.0555C1400,-209.439 1400,-222 1400,-222 1400,-222 799.0285,-222 799.0285,-222 799.0285,-222 799.0285,-222.7942 799.0285,-222.7942"/>
<polygon fill="#000000" stroke="#000000" points="795.5286,-219.9421 799.0285,-229.9421 802.5286,-219.9422 795.5286,-219.9421"/>
</g>
<!-- HighscoreComponent -->
<g id="node15" class="node">
<title>HighscoreComponent</title>
<polygon fill="#ffffb3" stroke="#000000" points="1324.3641,-198 1185.6359,-198 1185.6359,-162 1324.3641,-162 1324.3641,-198"/>
<text text-anchor="middle" x="1255" y="-175.8" font-family="Times,serif" font-size="14.00" fill="#000000">HighscoreComponent</text>
</g>
<!-- HighscoreComponent&#45;&gt;CoreModule -->
<g id="edge14" class="edge">
<title>HighscoreComponent&#45;&gt;CoreModule</title>
<path fill="none" stroke="#000000" d="M1255,-198.1944C1255,-206.2782 1255,-214 1255,-214 1255,-214 781.6762,-214 781.6762,-214 781.6762,-214 781.6762,-219.8056 781.6762,-219.8056"/>
<polygon fill="#000000" stroke="#000000" points="778.1763,-219.8055 781.6762,-229.8056 785.1763,-219.8056 778.1763,-219.8055"/>
</g>
<!-- GameServerService -->
<g id="node16" class="node">
<title>GameServerService</title>
<ellipse fill="#fdb462" stroke="#000000" cx="1074" cy="-180" rx="88.4979" ry="18"/>
<text text-anchor="middle" x="1074" y="-175.8" font-family="Times,serif" font-size="14.00" fill="#000000">GameServerService</text>
</g>
<!-- GameServerService&#45;&gt;CoreModule -->
<g id="edge17" class="edge">
<title>GameServerService&#45;&gt;CoreModule</title>
<path fill="none" stroke="#000000" d="M985.6559,-180C915.2259,-180 828.3338,-180 828.3338,-180 828.3338,-180 828.3338,-248 828.3338,-248 828.3338,-248 826.3272,-248 826.3272,-248"/>
<polygon fill="#000000" stroke="#000000" points="826.3272,-244.5001 816.3272,-248 826.3272,-251.5001 826.3272,-244.5001"/>
</g>
</g>
</svg>
